<svg xmlns="http://www.w3.org/2000/svg" xmlns:xlink="http://www.w3.org/1999/xlink" width="37" height="37" viewBox="0 0 37 37">
  <defs>
    <clipPath id="clip-path">
      <rect id="Rectangle_27" data-name="Rectangle 27" width="37" height="37" fill="#7600ff"/>
    </clipPath>
  </defs>
  <g id="Mask_Group_8" data-name="Mask Group 8" clip-path="url(#clip-path)">
    <g id="Layer_2" data-name="Layer 2">
      <g id="Layer_1" data-name="Layer 1">
        <path id="Path_112" data-name="Path 112" d="M18.5,0A18.5,18.5,0,1,1,0,18.5,18.5,18.5,0,0,1,18.5,0Z" transform="translate(0 0)" fill="#16fe98"/>
        <path id="Path_105" data-name="Path 105" d="M20.937,19.971c0,.539.009,1.078,0,1.615A5.381,5.381,0,0,1,11.5,24.98a5.126,5.126,0,0,1-1.274-2.788,5.262,5.262,0,0,1,1.784-4.8,5.163,5.163,0,0,1,2.79-1.285,5.582,5.582,0,0,1,.809-.054h1.415l.011.008a.224.224,0,0,1,.021.141q0,1.1,0,2.191v1.429a.2.2,0,0,1-.019.128c-.033.051-.085.048-.136.048H15.557a1.446,1.446,0,0,0-1.421,1.211,1.386,1.386,0,0,0,.5,1.319,1.355,1.355,0,0,0,.984.341,1.4,1.4,0,0,0,1.026-.507,1.444,1.444,0,0,0,.348-.976c0-.435,0-.869,0-1.3,0-.049,0-.1.046-.13a.178.178,0,0,1,.12-.021H20.78a.238.238,0,0,1,.148.021Z" fill="#fff"/>
        <path id="Path_106" data-name="Path 106" d="M17.026,16.06a7.633,7.633,0,0,1,.08-1.431,5.383,5.383,0,0,1,5.307-4.453l4.336,0c.064,0,.074.019.074.077q0,1.88,0,3.76c0,.062-.014.079-.078.079q-2.157,0-4.315,0a1.479,1.479,0,0,0-1.456,1.155,1.386,1.386,0,0,0-.036.316v.5l-.008.011a.226.226,0,0,1-.143.021H17.16c-.048,0-.1.01-.136-.034Z" fill="#fff"/>
        <path id="Path_107" data-name="Path 107" d="M20.937,16.06l3.857,0c.044,0,.058.01.058.057q0,1.9,0,3.8c0,.048-.014.057-.058.057l-3.857,0,0,0a.092.092,0,0,1-.033-.073c0-.028,0-.056,0-.083v-3.6c0-.053-.015-.113.034-.156Z" fill="#fff"/>
        <path id="Path_108" data-name="Path 108" d="M20.939,16.058v3.914H17.118c-.03,0-.06,0-.09,0l0,0s0,0,.005,0c0-.03,0-.06,0-.09V16.058Z" fill="#16fe98"/>
        <path id="Path_109" data-name="Path 109" d="M17.028,19.968c0,.486,0,.971,0,1.457a1.479,1.479,0,0,1-1.7,1.472,1.47,1.47,0,0,1,.049-2.913,2.033,2.033,0,0,1,.222-.011l1.429,0Z" fill="#16fe98"/>
      </g>
    </g>
  </g>
</svg>
