<svg xmlns="http://www.w3.org/2000/svg" xmlns:xlink="http://www.w3.org/1999/xlink" width="37" height="37" viewBox="0 0 37 37">
  <defs>
    <clipPath id="clip-path">
      <rect id="Rectangle_27" data-name="Rectangle 27" width="37" height="37" fill="#7600ff"/>
    </clipPath>
  </defs>
  <g id="Mask_Group_10" data-name="Mask Group 10" clip-path="url(#clip-path)">
    <g id="Layer_2" data-name="Layer 2">
      <g id="Layer_1" data-name="Layer 1">
        <path id="Path_121" data-name="Path 121" d="M18.5,0A18.5,18.5,0,1,1,0,18.5,18.5,18.5,0,0,1,18.5,0Z" transform="translate(0 0)" fill="#fff"/>
        <path id="Path_111" data-name="Path 111" d="M20.815,18.345a4.076,4.076,0,0,1,.657-.188,3.316,3.316,0,0,1,.354-.051,1.615,1.615,0,0,1,.276.015,4.786,4.786,0,0,1,1.785.558,5.454,5.454,0,0,1,.8.5,4.282,4.282,0,0,1,.916.988,5.68,5.68,0,0,1,.831,1.866,8.024,8.024,0,0,1,.19,1.156c.022.244.034.488.031.733a6.759,6.759,0,0,1-.5,2.492,4.973,4.973,0,0,1-.707,1.252,4.468,4.468,0,0,1-1.544,1.24,6.9,6.9,0,0,1-1.7.577,6.623,6.623,0,0,1-1.653.121,8.821,8.821,0,0,1-.881-.082,5.359,5.359,0,0,1-.714-.16,3.547,3.547,0,0,1-1.218-.608,3.628,3.628,0,0,1-1.354-2.185,2.742,2.742,0,0,1-.054-.762,1.4,1.4,0,0,1,.634-1.1,1.462,1.462,0,0,1,.531-.2,1.8,1.8,0,0,1,.925.059,1.32,1.32,0,0,1,.827.769,1.512,1.512,0,0,1,.124.554,1.815,1.815,0,0,1-.071.652,1.338,1.338,0,0,1-.819.882l-.029.013c0,.031.019.045.034.063a1.8,1.8,0,0,0,.921.572,6.419,6.419,0,0,0,.731.162,3.9,3.9,0,0,0,1.626-.055,2.965,2.965,0,0,0,1.973-1.707,5.719,5.719,0,0,0,.362-1.191,7.758,7.758,0,0,0,.125-2.013,5.99,5.99,0,0,0-.465-2.057,2.966,2.966,0,0,0-2.019-1.766,3.136,3.136,0,0,0-.7-.11,2.489,2.489,0,0,0-.85.131,3.2,3.2,0,0,0-.771.348c-.058.036-.119.065-.18.1q-.448.227-.9.451l-.076.034a.111.111,0,0,1-.01-.066c0-.136,0-.272,0-.408a.2.2,0,0,1,.044-.134q.723-.967,1.444-1.935L23.2,13.2c.016-.021.03-.043.048-.071a.2.2,0,0,0-.092-.01H16.428c-.119,0-.105-.013-.105.1v6.8a3.532,3.532,0,0,0,.019.5,2.312,2.312,0,0,0,.365.994,1.222,1.222,0,0,0,.907.546,1.917,1.917,0,0,0,1.356-.356,4.146,4.146,0,0,0,.925-.9,1.335,1.335,0,0,0,.116-.177.3.3,0,0,1,.376-.16.532.532,0,0,1,.378.42.83.83,0,0,1,0,.339,1.615,1.615,0,0,1-.245.591A3.153,3.153,0,0,1,19,23.17a2.842,2.842,0,0,1-1.063.219,8.586,8.586,0,0,1-1.091-.051,4.625,4.625,0,0,1-1.407-.358,2.432,2.432,0,0,1-.546-.338,2.585,2.585,0,0,1-.548-.674,3.267,3.267,0,0,1-.455-1.39,2.292,2.292,0,0,1-.01-.472.927.927,0,0,0,0-.106V13.226c0-.119.015-.108-.11-.108H10.412c-.071,0-.071,0-.071-.073v-1.15c0-.074,0-.075.077-.075H13.8c.1,0,.089.005.089-.088V8.942a.165.165,0,0,0-.054-.128c-.238-.235-.473-.473-.711-.708a.152.152,0,0,1-.051-.121c0-.2,0-.391,0-.587.019-.016.042-.009.063-.009h2.247a.1.1,0,0,1,.056.007c.268.139.534.28.8.416a.118.118,0,0,1,.075.125q0,1.888,0,3.777c0,.123-.014.107.109.107,1.213,0,2.425,0,3.638-.009,1.759-.011,3.518-.005,5.277-.018a.315.315,0,0,1,.254.1c.241.251.49.495.736.741.013.014.026.028.04.04s.026.039,0,.061-.024.024-.034.035l-2.1,2.11-3.429,3.446a.016.016,0,0,0-.007.014S20.811,18.345,20.815,18.345Z" fill="#2c7df7"/>
      </g>
    </g>
  </g>
</svg>
