<svg xmlns="http://www.w3.org/2000/svg" xmlns:xlink="http://www.w3.org/1999/xlink" width="37" height="37" viewBox="0 0 37 37">
  <defs>
    <clipPath id="clip-path">
      <rect id="Rectangle_27" data-name="Rectangle 27" width="37" height="37" fill="#7600ff"/>
    </clipPath>
  </defs>
  <g id="Mask_Group_9" data-name="Mask Group 9" clip-path="url(#clip-path)">
    <g id="Layer_2" data-name="Layer 2">
      <g id="Layer_1" data-name="Layer 1">
        <circle id="Ellipse_29" data-name="Ellipse 29" cx="18.5" cy="18.5" r="18.5" transform="translate(0 0)" fill="#fff"/>
        <path id="Path_110" data-name="Path 110" d="M13.807,11.948a1.056,1.056,0,0,0-.408.1c-.2.1-.384.215-.574.327-.234.138-.471.271-.707.408-.306.178-.608.361-.917.534a1.736,1.736,0,0,0-.475.358,1.251,1.251,0,0,0-.3.62.419.419,0,0,0-.01.1c-.01.027,0,.056-.007.084s0,.034,0,.05v2.613c0,.017,0,.034,0,.05s0,.05.008.074a1.18,1.18,0,0,0,.181.557,1.438,1.438,0,0,0,.538.494c.4.238.8.481,1.195.722.322.195.641.394.969.581a1.145,1.145,0,0,0,.535.153c.024.01.05,0,.074.007H14c.027-.009.056,0,.083-.008a1.1,1.1,0,0,0,.512-.166q.417-.249.831-.5l1.1-.662c.327-.2.653-.392.983-.583.252-.146.509-.283.763-.424.4-.222.8-.442,1.2-.668.275-.156.544-.321.816-.481s.523-.305.782-.459l.917-.542c.143-.085.285-.171.431-.25a1.448,1.448,0,0,1,.462-.144c.016-.009.036,0,.052-.008l.049,0a1.027,1.027,0,0,1,.181,0,1.591,1.591,0,0,1,.713.266c.267.16.538.314.808.47l1.289.75c.372.216.746.428,1.116.646.317.187.647.353.95.563a1.231,1.231,0,0,1,.53.855c0,.018.008.036.012.054s0,.036.007.053v5.172c-.009.017,0,.036-.007.054a1.34,1.34,0,0,1-.254.636,1.383,1.383,0,0,1-.429.367c-.318.181-.633.367-.95.55l-.9.52-.819.475-.936.543c-.208.12-.413.245-.624.36a.7.7,0,0,1-.372.1,5.051,5.051,0,0,0-.516,0,.717.717,0,0,1-.4-.123c-.162-.091-.322-.186-.483-.28l-.466-.273c-.155-.09-.318-.182-.475-.274l-.466-.272-.475-.274-.462-.269-.552-.319-.581-.338a3.765,3.765,0,0,1-.367-.223,1.311,1.311,0,0,1-.457-.6,1.235,1.235,0,0,1-.071-.291c-.009-.02,0-.043-.008-.062q0-.888,0-1.776a.1.1,0,0,1,.057-.1c.333-.192.665-.387,1-.58l.881-.507c.067-.039.068-.038.068.043v1.573c0,.024,0,.048,0,.071s0,.056.008.083a1.12,1.12,0,0,0,.134.473,1.365,1.365,0,0,0,.577.57c.451.257.9.523,1.35.785.273.159.545.322.822.475a1.134,1.134,0,0,0,.466.144c.016.01.035,0,.052.008l.048,0a.82.82,0,0,0,.187,0,1.086,1.086,0,0,0,.525-.159c.258-.151.515-.3.771-.458l.714-.428c.239-.143.473-.279.708-.421a1.309,1.309,0,0,0,.514-.557,1.112,1.112,0,0,0,.116-.41.338.338,0,0,0,.01-.084.11.11,0,0,0,0-.05V19.778a.111.111,0,0,0,0-.05c0-.019,0-.039,0-.058s0-.036-.008-.053a1.287,1.287,0,0,0-.256-.61,1.264,1.264,0,0,0-.4-.341c-.134-.074-.266-.153-.4-.23l-.469-.274-.523-.3L24,17.585c-.13-.075-.258-.153-.391-.222a1.2,1.2,0,0,0-.436-.133c-.021,0-.041-.016-.063-.01-.024-.01-.049,0-.073-.007h-.1c-.027.009-.056,0-.082.008a.985.985,0,0,0-.349.085,6.458,6.458,0,0,0-.632.356l-.512.3-.921.538-.885.511-.767.444-.967.561-.931.541c-.281.164-.56.333-.842.493-.266.153-.532.307-.8.463-.23.136-.46.272-.694.4a1.293,1.293,0,0,1-.466.143c-.017.007-.036,0-.053.007l-.1,0a.089.089,0,0,1-.05,0l-.088,0c-.017-.009-.036,0-.053-.008a1.3,1.3,0,0,1-.54-.2c-.2-.119-.4-.229-.594-.344l-.465-.272-.475-.274-.657-.384-.548-.316-.581-.338c-.184-.106-.369-.211-.551-.319a3.36,3.36,0,0,1-.451-.283,1.308,1.308,0,0,1-.38-.506,1.164,1.164,0,0,1-.09-.328s-.006-.007-.01-.01v-.02a.131.131,0,0,0,0-.081v-5.1c.012-.016,0-.035.008-.052a1.153,1.153,0,0,1,.6-.9c.422-.24.838-.489,1.257-.733l3.071-1.8a.772.772,0,0,1,.436-.121c.161.009.327.006.49,0a.546.546,0,0,1,.272.063c.172.086.334.19.5.287q1.661.974,3.32,1.951c.179.105.36.207.533.321a1.274,1.274,0,0,1,.538.745c.017.061.025.124.038.186.009.02,0,.043.008.064V15.1a.075.075,0,0,1-.045.077c-.182.1-.361.21-.541.315l-.542.312-.864.5c-.008,0-.013,0-.014-.009s0-.03,0-.045V14.53a.119.119,0,0,0,0-.055l0-.039c-.009-.016,0-.036-.008-.052a1.344,1.344,0,0,0-.071-.265,1.372,1.372,0,0,0-.21-.365,1.619,1.619,0,0,0-.48-.372l-.652-.394-.721-.435c-.247-.149-.492-.3-.74-.448a1.226,1.226,0,0,0-.35-.129,1.031,1.031,0,0,0-.2-.029c-.034-.011-.07,0-.1-.007h-.021C13.877,11.948,13.841,11.935,13.807,11.948Z" fill="#8046e3"/>
      </g>
    </g>
  </g>
</svg>
